<?xml version="1.0" encoding="UTF-8"?><svg xmlns="http://www.w3.org/2000/svg" xmlns:xlink="http://www.w3.org/1999/xlink" contentScriptType="text/ecmascript" width="75" zoomAndPan="magnify" contentStyleType="text/css" viewBox="0 0 75 74.999997" height="74.999997" preserveAspectRatio="xMidYMid meet" version="1.0"><defs><clipPath id="clip-0"><path d="M 9 9 L 64 9 L 64 67 L 9 67 Z M 9 9 " clip-rule="nonzero"/></clipPath><clipPath id="clip-1"><path d="M 13.183594 3.75 L 67.257812 12.332031 L 57.96875 70.851562 L 3.894531 62.269531 Z M 13.183594 3.75 " clip-rule="nonzero"/></clipPath><clipPath id="clip-2"><path d="M 13.183594 3.75 L 67.257812 12.332031 L 57.96875 70.851562 L 3.894531 62.269531 Z M 13.183594 3.75 " clip-rule="nonzero"/></clipPath><clipPath id="clip-3"><path d="M 13.183594 3.75 L 67.257812 12.332031 L 57.96875 70.851562 L 3.894531 62.269531 Z M 13.183594 3.75 " clip-rule="nonzero"/></clipPath><clipPath id="clip-4"><path d="M 27 21 L 48 21 L 48 45 L 27 45 Z M 27 21 " clip-rule="nonzero"/></clipPath><clipPath id="clip-5"><path d="M 13.183594 3.75 L 67.257812 12.332031 L 57.96875 70.851562 L 3.894531 62.269531 Z M 13.183594 3.75 " clip-rule="nonzero"/></clipPath><clipPath id="clip-6"><path d="M 13.183594 3.75 L 67.257812 12.332031 L 57.96875 70.851562 L 3.894531 62.269531 Z M 13.183594 3.75 " clip-rule="nonzero"/></clipPath><clipPath id="clip-7"><path d="M 13.183594 3.75 L 67.257812 12.332031 L 57.96875 70.851562 L 3.894531 62.269531 Z M 13.183594 3.75 " clip-rule="nonzero"/></clipPath></defs><g clip-path="url(#clip-0)"><g clip-path="url(#clip-1)"><g clip-path="url(#clip-2)"><g clip-path="url(#clip-3)"><path fill="rgb(100%, 100%, 100%)" d="M 62.28125 24.867188 C 60.941406 20.085938 57.78125 15.960938 53.421875 13.539062 C 44.835938 8.773438 33.753906 7.472656 24.804688 11.988281 C 16.0625 16.398438 9.660156 26.121094 9.375 35.964844 C 9.222656 41.035156 10.957031 45.984375 14.65625 49.53125 C 16.726562 51.519531 19.351562 52.988281 22.035156 53.996094 C 23.296875 54.476562 24.609375 54.898438 25.945312 55.121094 C 27.394531 55.363281 28.878906 55.375 30.34375 55.433594 C 31.507812 55.476562 32.789062 55.457031 33.914062 55.8125 C 33.957031 55.832031 34.003906 55.828125 34.050781 55.835938 C 33.359375 59.078125 33.832031 62.449219 33.269531 65.714844 C 33.128906 66.511719 34.085938 67.058594 34.730469 66.613281 C 36.617188 65.277344 37.816406 63.164062 38.875 61.160156 C 39.457031 60.058594 39.988281 58.929688 40.539062 57.8125 C 40.800781 57.292969 41.058594 56.761719 41.339844 56.242188 C 41.472656 56.007812 41.625 55.761719 41.761719 55.515625 C 43.347656 55.394531 45.007812 54.898438 46.484375 54.359375 C 47.34375 54.050781 48.136719 53.699219 48.871094 53.277344 C 51.207031 52.433594 53.429688 51.253906 55.375 49.777344 C 58.808594 47.175781 61.238281 43.53125 62.375 39.386719 C 63.667969 34.777344 63.574219 29.480469 62.28125 24.867188 Z M 56.535156 46.675781 C 53.421875 50.050781 49.210938 52.09375 44.839844 53.304688 C 44.238281 53.464844 43.636719 53.640625 43.035156 53.8125 C 42.640625 53.878906 42.230469 53.941406 41.835938 54.007812 C 41.570312 53.6875 41.109375 53.578125 40.667969 53.835938 C 39.816406 54.332031 39.320312 55.839844 38.890625 56.695312 C 38.375 57.738281 37.867188 58.789062 37.339844 59.828125 C 36.726562 61.039062 36.058594 62.359375 35.210938 63.5 C 35.175781 60.921875 34.796875 58.359375 34.949219 55.789062 C 35.1875 55.6875 35.390625 55.511719 35.53125 55.226562 C 35.777344 54.695312 35.554688 53.816406 34.929688 53.625 C 32.472656 52.859375 29.851562 53.148438 27.332031 52.886719 C 24.738281 52.625 22.210938 51.640625 19.941406 50.390625 C 15.707031 48.074219 12.71875 44.175781 11.972656 39.367188 C 11.289062 34.960938 12.332031 30.449219 14.207031 26.457031 C 16.167969 22.292969 19.09375 18.550781 22.867188 15.875 C 30.4375 10.519531 40.363281 10.472656 48.769531 13.863281 C 50.980469 14.753906 53.179688 15.8125 55.019531 17.34375 C 56.738281 18.773438 58.136719 20.574219 59.121094 22.566406 C 61.164062 26.722656 61.699219 31.472656 61.210938 36.035156 C 60.761719 40.03125 59.265625 43.707031 56.535156 46.675781 Z M 56.535156 46.675781 " fill-opacity="1" fill-rule="nonzero"/></g></g></g></g><g clip-path="url(#clip-4)"><g clip-path="url(#clip-5)"><g clip-path="url(#clip-6)"><g clip-path="url(#clip-7)"><path fill="rgb(100%, 100%, 100%)" d="M 46.542969 22.953125 C 45.792969 21.910156 44.578125 21.53125 43.425781 21.699219 C 42.066406 21.648438 40.609375 22.550781 39.699219 23.433594 C 38.8125 24.285156 38.125 25.371094 37.652344 26.5 C 37.367188 27.191406 37.152344 27.890625 36.945312 28.59375 C 36.851562 28.464844 36.714844 28.371094 36.558594 28.3125 C 36.125 27.203125 35.457031 26.183594 34.667969 25.242188 C 33.597656 23.960938 31.902344 22.230469 30.054688 22.453125 C 27.90625 22.695312 27.382812 25.546875 27.613281 27.265625 C 28.007812 30.179688 29.683594 32.597656 30.9375 35.179688 C 31.589844 36.535156 32.050781 37.984375 32.699219 39.351562 C 32.917969 39.816406 33.207031 40.4375 33.582031 40.953125 C 33.65625 41.128906 33.722656 41.3125 33.800781 41.488281 C 33.976562 41.914062 34.203125 42.488281 34.515625 42.957031 C 34.65625 43.320312 34.796875 43.679688 34.992188 44.015625 C 35.191406 44.375 35.8125 44.367188 36.039062 44.042969 C 36.054688 44.019531 36.070312 44 36.085938 43.980469 C 36.894531 43.453125 37.675781 42.734375 38.34375 41.929688 C 41.496094 38.808594 44.535156 35.375 46.296875 31.292969 C 46.945312 29.785156 47.675781 27.175781 47.308594 25.144531 C 47.210938 24.335938 46.984375 23.5625 46.542969 22.953125 Z M 46.542969 22.953125 " fill-opacity="1" fill-rule="nonzero"/></g></g></g></g></svg>