<?xml version="1.0" encoding="UTF-8"?><svg xmlns="http://www.w3.org/2000/svg" xmlns:xlink="http://www.w3.org/1999/xlink" contentScriptType="text/ecmascript" width="75" zoomAndPan="magnify" contentStyleType="text/css" viewBox="0 0 75 74.999997" height="74.999997" preserveAspectRatio="xMidYMid meet" version="1.0"><defs><clipPath id="clip-0"><path d="M 3.75 0.207031 L 71.25 0.207031 L 71.25 75 L 3.75 75 Z M 3.75 0.207031 " clip-rule="nonzero"/></clipPath></defs><g clip-path="url(#clip-0)"><path fill="rgb(100%, 100%, 100%)" d="M 27.203125 28.332031 L 25.90625 70.1875 L 27.410156 71.691406 L 67.046875 71.691406 L 67.53125 71.140625 L 61.859375 28.332031 L 56.023438 28.332031 C 56.078125 28.863281 56.128906 29.371094 56.179688 29.855469 C 56.992188 30.222656 57.5625 31.042969 57.5625 31.996094 C 57.5625 33.292969 56.515625 34.339844 55.226562 34.339844 C 53.9375 34.339844 52.894531 33.292969 52.894531 31.996094 C 52.894531 31.214844 53.277344 30.519531 53.863281 30.09375 C 53.808594 29.539062 53.75 28.949219 53.683594 28.332031 L 35.199219 28.332031 C 35.226562 28.855469 35.253906 29.382812 35.285156 29.90625 C 36.042969 30.292969 36.5625 31.085938 36.5625 31.996094 C 36.5625 33.292969 35.519531 34.339844 34.230469 34.339844 C 32.941406 34.339844 31.894531 33.292969 31.894531 31.996094 C 31.894531 31.171875 32.320312 30.449219 32.960938 30.03125 C 32.929688 29.464844 32.894531 28.898438 32.863281 28.332031 Z M 53.28125 24.816406 C 52.089844 15.28125 49.503906 2.550781 42.21875 2.550781 C 36.097656 2.550781 34.945312 12.03125 34.945312 20.542969 C 34.945312 22.019531 34.980469 23.457031 35.03125 24.816406 L 43.296875 24.816406 C 43.238281 19.941406 43.003906 14.46875 41.886719 10.121094 C 41.449219 8.425781 40.878906 6.90625 40.125 5.679688 C 40.695312 5.199219 41.382812 4.894531 42.21875 4.894531 C 42.273438 4.894531 42.328125 4.894531 42.382812 4.898438 C 43.121094 6.246094 43.695312 7.820312 44.136719 9.546875 C 45.316406 14.132812 45.5625 19.792969 45.625 24.816406 Z M 32.699219 24.816406 C 32.644531 23.441406 32.609375 22 32.609375 20.542969 C 32.609375 10.921875 34.136719 0.207031 42.21875 0.207031 C 51.425781 0.207031 54.347656 14.496094 55.625 24.816406 L 63.386719 24.816406 C 64.324219 24.816406 65.089844 25.558594 65.136719 26.488281 L 71.097656 71.476562 C 71.167969 72.019531 70.972656 72.523438 70.636719 72.902344 L 69.128906 74.609375 C 68.785156 75 68.304688 75.199219 67.824219 75.199219 L 26.691406 75.207031 C 26.554688 75.207031 26.425781 75.191406 26.300781 75.164062 L 17.058594 67.039062 L 20.085938 28.265625 L 20.210938 26.660156 C 20.367188 25.757812 20.507812 24.949219 20.53125 24.808594 C 21.464844 19.546875 22.710938 13.554688 24.816406 8.820312 C 27.046875 3.808594 30.242188 0.207031 35.027344 0.207031 C 35.230469 0.207031 35.429688 0.214844 35.621094 0.226562 C 34.789062 0.945312 34.066406 1.800781 33.445312 2.753906 C 30.613281 3.492188 28.527344 6.203125 26.941406 9.773438 C 24.945312 14.257812 23.738281 20.082031 22.828125 25.210938 C 22.804688 25.335938 22.769531 25.554688 22.722656 25.828125 L 24.84375 24.957031 C 25.019531 24.882812 25.3125 24.816406 25.511719 24.816406 Z M 22.820312 75.207031 L 7.722656 75.207031 C 6.894531 75.207031 6.566406 74.78125 6.082031 74.230469 L 15.695312 68.945312 Z M 4.496094 72.441406 C 4.078125 71.96875 3.839844 71.523438 3.941406 70.863281 L 10.660156 26.3125 C 10.835938 25.152344 12.039062 24.554688 13.113281 24.976562 L 17.859375 26.839844 L 14.738281 66.8125 Z M 4.496094 72.441406 " fill-opacity="1" fill-rule="nonzero"/></g><path fill="rgb(100%, 100%, 100%)" d="M 59.210938 47.839844 C 59.597656 51.289062 57.753906 53.414062 55.339844 55.441406 C 52.886719 57.507812 49.832031 59.476562 47.851562 62.738281 C 45.464844 59.480469 42.167969 57.507812 39.464844 55.445312 C 36.808594 53.417969 34.714844 51.289062 34.6875 47.839844 C 34.65625 44.144531 37.890625 41.230469 40.875 41.230469 C 43.859375 41.234375 45.652344 42.777344 46.789062 45.042969 C 47.636719 42.777344 49.246094 41.234375 52.230469 41.234375 C 55.214844 41.238281 58.800781 44.148438 59.210938 47.839844 Z M 59.210938 47.839844 " fill-opacity="1" fill-rule="evenodd"/></svg>