<?xml version="1.0" encoding="UTF-8"?><svg xmlns="http://www.w3.org/2000/svg" xmlns:xlink="http://www.w3.org/1999/xlink" contentScriptType="text/ecmascript" width="150" zoomAndPan="magnify" contentStyleType="text/css" viewBox="0 0 150 149.999998" height="149.999998" preserveAspectRatio="xMidYMid meet" version="1.0"><defs><clipPath id="clip-0"><path d="M 2.5 2.5 L 150 2.5 L 150 150 L 2.5 150 Z M 2.5 2.5 " clip-rule="nonzero"/></clipPath></defs><g clip-path="url(#clip-0)"><path fill="rgb(59.21936%, 24.308777%, 18.03894%)" d="M 76.375 7.425781 C 114.398438 7.425781 145.324219 38.351562 145.324219 76.375 C 145.324219 114.398438 114.398438 145.324219 76.375 145.324219 C 38.351562 145.324219 7.425781 114.398438 7.425781 76.375 C 7.425781 38.351562 38.351562 7.425781 76.375 7.425781 Z M 76.375 150.25 C 117.113281 150.25 150.25 117.113281 150.25 76.375 C 150.25 35.636719 117.113281 2.5 76.375 2.5 C 35.636719 2.5 2.5 35.636719 2.5 76.375 C 2.5 117.113281 35.636719 150.25 76.375 150.25 " fill-opacity="1" fill-rule="nonzero"/></g><path fill="rgb(59.21936%, 24.308777%, 18.03894%)" d="M 76.375 73.914062 C 90.996094 73.914062 103.875 84.023438 107.414062 98.113281 C 99.875 107.792969 88.621094 113.3125 76.375 113.3125 C 64.128906 113.3125 52.875 107.792969 45.335938 98.113281 C 48.875 84.023438 61.753906 73.914062 76.375 73.914062 Z M 61.601562 54.210938 C 61.601562 46.066406 68.226562 39.4375 76.375 39.4375 C 84.523438 39.4375 91.148438 46.066406 91.148438 54.210938 C 91.148438 62.359375 84.523438 68.988281 76.375 68.988281 C 68.226562 68.988281 61.601562 62.359375 61.601562 54.210938 Z M 76.375 118.238281 C 90.371094 118.238281 103.710938 111.476562 112.050781 100.132812 C 112.476562 99.566406 112.628906 98.855469 112.476562 98.164062 C 109.648438 84.90625 99.691406 74.539062 87.1875 70.660156 C 92.535156 67.132812 96.074219 61.082031 96.074219 54.210938 C 96.074219 43.351562 87.234375 34.511719 76.375 34.511719 C 65.515625 34.511719 56.675781 43.351562 56.675781 54.210938 C 56.675781 61.082031 60.214844 67.132812 65.5625 70.660156 C 53.058594 74.539062 43.101562 84.90625 40.273438 98.164062 C 40.121094 98.855469 40.273438 99.566406 40.699219 100.132812 C 49.039062 111.476562 62.378906 118.238281 76.375 118.238281 " fill-opacity="1" fill-rule="nonzero"/></svg>