<?xml version="1.0" encoding="UTF-8"?><svg xmlns="http://www.w3.org/2000/svg" xmlns:xlink="http://www.w3.org/1999/xlink" contentScriptType="text/ecmascript" width="375" zoomAndPan="magnify" contentStyleType="text/css" viewBox="0 0 375 374.999991" height="374.999991" preserveAspectRatio="xMidYMid meet" version="1.0"><defs><clipPath id="clip-0"><path d="M 16.398438 16.398438 L 358.398438 16.398438 L 358.398438 358.398438 L 16.398438 358.398438 Z M 16.398438 16.398438 " clip-rule="nonzero"/></clipPath></defs><g clip-path="url(#clip-0)"><path fill="rgb(100%, 100%, 100%)" d="M 187.398438 27.800781 C 275.414062 27.800781 347 99.382812 347 187.398438 C 347 275.414062 275.414062 347 187.398438 347 C 99.382812 347 27.800781 275.414062 27.800781 187.398438 C 27.800781 99.382812 99.382812 27.800781 187.398438 27.800781 Z M 187.398438 358.398438 C 281.695312 358.398438 358.398438 281.695312 358.398438 187.398438 C 358.398438 93.105469 281.695312 16.398438 187.398438 16.398438 C 93.105469 16.398438 16.398438 93.105469 16.398438 187.398438 C 16.398438 281.695312 93.105469 358.398438 187.398438 358.398438 " fill-opacity="1" fill-rule="nonzero"/></g><path fill="rgb(100%, 100%, 100%)" d="M 187.398438 181.699219 C 221.242188 181.699219 251.058594 205.101562 259.25 237.71875 C 241.792969 260.117188 215.742188 272.898438 187.398438 272.898438 C 159.054688 272.898438 133.003906 260.117188 115.546875 237.71875 C 123.742188 205.101562 153.554688 181.699219 187.398438 181.699219 Z M 153.199219 136.097656 C 153.199219 117.242188 168.539062 101.898438 187.398438 101.898438 C 206.257812 101.898438 221.597656 117.242188 221.597656 136.097656 C 221.597656 154.957031 206.257812 170.300781 187.398438 170.300781 C 168.539062 170.300781 153.199219 154.957031 153.199219 136.097656 Z M 187.398438 284.300781 C 219.796875 284.300781 250.679688 268.648438 269.984375 242.394531 C 270.960938 241.082031 271.320312 239.433594 270.960938 237.832031 C 264.417969 207.148438 241.371094 183.148438 212.425781 174.171875 C 224.804688 166.003906 233 151.996094 233 136.097656 C 233 110.960938 212.539062 90.5 187.398438 90.5 C 162.261719 90.5 141.800781 110.960938 141.800781 136.097656 C 141.800781 151.996094 149.992188 166.003906 162.371094 174.171875 C 133.425781 183.148438 110.382812 207.148438 103.835938 237.832031 C 103.480469 239.433594 103.835938 241.082031 104.816406 242.394531 C 124.121094 268.648438 155.003906 284.300781 187.398438 284.300781 " fill-opacity="1" fill-rule="nonzero"/><path fill="rgb(100%, 100%, 100%)" d="M 187.355469 366.511719 C 139.523438 366.511719 94.484375 347.894531 60.6875 314.027344 C 26.816406 280.230469 8.199219 235.1875 8.199219 187.355469 C 8.199219 139.523438 26.816406 94.484375 60.6875 60.6875 C 94.484375 26.816406 139.523438 8.199219 187.355469 8.199219 C 235.1875 8.199219 280.230469 26.816406 314.027344 60.6875 C 347.894531 94.554688 366.511719 139.523438 366.511719 187.355469 C 366.511719 235.1875 347.894531 280.230469 314.027344 314.027344 C 280.230469 347.894531 235.1875 366.511719 187.355469 366.511719 Z M 187.355469 18.941406 C 142.386719 18.941406 100.070312 36.484375 68.277344 68.277344 C 36.484375 100.070312 18.941406 142.386719 18.941406 187.355469 C 18.941406 232.324219 36.484375 274.644531 68.277344 306.4375 C 100.070312 338.230469 142.386719 355.773438 187.355469 355.773438 C 232.324219 355.773438 274.644531 338.230469 306.4375 306.4375 C 338.230469 274.644531 355.773438 232.324219 355.773438 187.355469 C 355.773438 142.386719 338.230469 100.070312 306.4375 68.277344 C 274.644531 36.484375 232.324219 18.941406 187.355469 18.941406 Z M 187.355469 18.941406 " fill-opacity="1" fill-rule="nonzero"/></svg>